<svg width="960" height="620" viewBox="0 0 960 620" xmlns="http://www.w3.org/2000/svg" role="img" aria-labelledby="title desc">
  <title id="title">Окно модуля армирования по изополям с кнопкой методички</title>
  <desc id="desc">Схема показывает кнопку вопроса в окне, подсказку при наведении и последовательные блоки workflow армирования по изополям.</desc>
  <rect width="960" height="620" rx="22" fill="#F7F9FB"/>
  <rect x="56" y="48" width="848" height="524" rx="14" fill="#FFFFFF" stroke="#D7DEE8" stroke-width="2"/>

  <g font-family="Segoe UI, Arial, sans-serif">
    <rect x="80" y="72" width="800" height="64" rx="8" fill="#F8FAFC" stroke="#D7DEE8"/>
    <rect x="102" y="88" width="32" height="32" rx="6" fill="#12263A"/>
    <path d="M110 113 L132 96 L132 102 L116 113 Z" fill="#F5B84B"/>
    <text x="150" y="111" fill="#12263A" font-size="24" font-weight="700">Армирование по изополям</text>
    <rect x="824" y="87" width="36" height="34" rx="8" fill="#FFFFFF" stroke="#3564A8" stroke-width="2"/>
    <text x="842" y="111" text-anchor="middle" fill="#3564A8" font-size="24" font-weight="700">?</text>
    <path d="M842 122 C842 146 820 153 792 158" fill="none" stroke="#3564A8" stroke-width="3" stroke-linecap="round"/>

    <rect x="602" y="158" width="258" height="94" rx="8" fill="#EAF0FA" stroke="#3564A8" stroke-width="2"/>
    <text x="620" y="186" fill="#12263A" font-size="18" font-weight="700">Подсказка при наведении</text>
    <text x="620" y="213" fill="#4A5A6A" font-size="15">Нажмите, чтобы открыть справку</text>
    <text x="620" y="235" fill="#4A5A6A" font-size="15">с картинками и примером workflow.</text>

    <rect x="80" y="158" width="492" height="76" rx="8" fill="#FFFFFF" stroke="#D7DEE8"/>
    <text x="104" y="188" fill="#12263A" font-size="18" font-weight="700">Источник и зоны изополей</text>
    <rect x="104" y="202" width="136" height="26" rx="6" fill="#E8F3F0" stroke="#1F8A70"/>
    <text x="172" y="221" text-anchor="middle" fill="#1F8A70" font-size="14" font-weight="700">Выбрать файл</text>
    <text x="256" y="221" fill="#4A5A6A" font-size="14">4 карты или manifest</text>

    <rect x="80" y="254" width="492" height="76" rx="8" fill="#FFFFFF" stroke="#D7DEE8"/>
    <text x="104" y="284" fill="#12263A" font-size="18" font-weight="700">Проверка зон</text>
    <path d="M116 316 C160 290 220 290 264 316 S350 344 430 306" fill="none" stroke="#1F8A70" stroke-width="5" stroke-linecap="round"/>

    <rect x="80" y="350" width="492" height="76" rx="8" fill="#FFFFFF" stroke="#D7DEE8"/>
    <text x="104" y="380" fill="#12263A" font-size="18" font-weight="700">Основа армирования</text>
    <rect x="330" y="370" width="140" height="34" rx="5" fill="#EAF0FA" stroke="#3564A8"/>
    <text x="400" y="393" text-anchor="middle" fill="#3564A8" font-size="15">стена / плита</text>

    <rect x="80" y="446" width="492" height="76" rx="8" fill="#FFFFFF" stroke="#D7DEE8"/>
    <text x="104" y="476" fill="#12263A" font-size="18" font-weight="700">Инженерная раскладка</text>
    <rect x="104" y="486" width="210" height="26" rx="6" fill="#FCEBEB" stroke="#B23A48"/>
    <text x="209" y="504" text-anchor="middle" fill="#B23A48" font-size="13" font-weight="700">Применить изменения</text>

    <rect x="602" y="284" width="258" height="238" rx="8" fill="#FFF3DB" stroke="#B06F00" stroke-width="2"/>
    <text x="624" y="316" fill="#12263A" font-size="20" font-weight="700">Готовность: 4 из 5</text>
    <text x="624" y="350" fill="#1F8A70" font-size="16">✓ Источник выбран</text>
    <text x="624" y="378" fill="#1F8A70" font-size="16">✓ Верх/низ подтверждены</text>
    <text x="624" y="406" fill="#1F8A70" font-size="16">✓ Зоны загружены</text>
    <text x="624" y="434" fill="#1F8A70" font-size="16">✓ Плита привязана</text>
    <text x="624" y="462" fill="#4A5A6A" font-size="16">○ Раскладка проверена</text>
    <text x="624" y="494" fill="#4A5A6A" font-size="14">Перед записью будет показан diff</text>
  </g>
</svg>
