<svg width="960" height="540" viewBox="0 0 960 540" xmlns="http://www.w3.org/2000/svg" role="img" aria-labelledby="title desc">
  <title id="title">Пример работы каркаса изополей</title>
  <desc id="desc">Пример показывает, как JSON-контур изополей попадает в preview, связывается с host-элементом и превращается в тестовую арматуру после подтверждения.</desc>
  <rect width="960" height="540" rx="22" fill="#F7F9FB"/>
  <rect x="36" y="34" width="888" height="472" rx="16" fill="#FFFFFF" stroke="#D7DEE8" stroke-width="2"/>

  <g font-family="Segoe UI, Arial, sans-serif">
    <text x="70" y="86" fill="#12263A" font-size="30" font-weight="700">Пример: JSON-контур - preview - host - тестовая арматура</text>
    <text x="70" y="122" fill="#4A5A6A" font-size="18">Все шаги до подтверждения тестовой арматуры безопасны для модели Revit.</text>

    <g transform="translate(70 170)">
      <text x="0" y="-18" fill="#12263A" font-size="20" font-weight="700">1. Входной JSON</text>
      <rect x="0" y="0" width="240" height="210" rx="10" fill="#F8FAFC" stroke="#D7DEE8"/>
      <text x="18" y="36" fill="#12263A" font-size="15" font-family="Consolas, monospace">{</text>
      <text x="18" y="62" fill="#12263A" font-size="15" font-family="Consolas, monospace">  "schemaVersion": "1.0",</text>
      <text x="18" y="88" fill="#12263A" font-size="15" font-family="Consolas, monospace">  "polylines": [</text>
      <text x="18" y="114" fill="#1F8A70" font-size="15" font-family="Consolas, monospace">    "wall-zone-a"</text>
      <text x="18" y="140" fill="#12263A" font-size="15" font-family="Consolas, monospace">  ]</text>
      <text x="18" y="166" fill="#12263A" font-size="15" font-family="Consolas, monospace">}</text>
      <text x="18" y="194" fill="#4A5A6A" font-size="14">reader валидирует контракт</text>
    </g>

    <path d="M330 272 H390" stroke="#4A5A6A" stroke-width="3" stroke-linecap="round"/>
    <path d="M390 272 L378 264 L378 280 Z" fill="#4A5A6A"/>

    <g transform="translate(410 170)">
      <text x="0" y="-18" fill="#12263A" font-size="20" font-weight="700">2. Preview</text>
      <rect x="0" y="0" width="210" height="210" rx="10" fill="#F8FAFC" stroke="#D7DEE8"/>
      <path d="M34 150 C64 62 122 62 168 146" fill="none" stroke="#1F8A70" stroke-width="8" stroke-linecap="round"/>
      <path d="M42 166 L96 116 L164 170" fill="none" stroke="#3564A8" stroke-width="5" stroke-linecap="round" stroke-linejoin="round"/>
      <circle cx="34" cy="150" r="7" fill="#1F8A70"/>
      <circle cx="168" cy="146" r="7" fill="#1F8A70"/>
      <text x="28" y="38" fill="#4A5A6A" font-size="15">контуры видны в окне</text>
      <text x="28" y="190" fill="#4A5A6A" font-size="14">Revit preview очищается</text>
    </g>

    <path d="M642 272 H702" stroke="#4A5A6A" stroke-width="3" stroke-linecap="round"/>
    <path d="M702 272 L690 264 L690 280 Z" fill="#4A5A6A"/>

    <g transform="translate(722 170)">
      <text x="0" y="-18" fill="#12263A" font-size="20" font-weight="700">3. Host и тест</text>
      <rect x="0" y="0" width="170" height="210" rx="10" fill="#F8FAFC" stroke="#D7DEE8"/>
      <rect x="24" y="56" width="122" height="78" rx="6" fill="#EAF0FA" stroke="#3564A8" stroke-width="2"/>
      <line x1="48" y1="70" x2="48" y2="122" stroke="#B23A48" stroke-width="6" stroke-linecap="round"/>
      <line x1="78" y1="70" x2="78" y2="122" stroke="#B23A48" stroke-width="6" stroke-linecap="round"/>
      <line x1="108" y1="70" x2="108" y2="122" stroke="#B23A48" stroke-width="6" stroke-linecap="round"/>
      <text x="85" y="36" text-anchor="middle" fill="#4A5A6A" font-size="15">стена или плита</text>
      <text x="85" y="164" text-anchor="middle" fill="#B23A48" font-size="15" font-weight="700">после подтверждения</text>
      <text x="85" y="188" text-anchor="middle" fill="#4A5A6A" font-size="14">проверить Undo</text>
    </g>

    <rect x="70" y="426" width="822" height="1" fill="#D7DEE8"/>
    <text x="70" y="462" fill="#12263A" font-size="18" font-weight="700">Контрольная мысль:</text>
    <text x="250" y="462" fill="#4A5A6A" font-size="18">preview и расчет правил - это проверка; запись начинается только с тестовой арматуры.</text>
  </g>
</svg>
