<?xml version="1.0" encoding="UTF-8"?> <svg xmlns="http://www.w3.org/2000/svg" width="44" height="44" viewBox="0 0 44 44" fill="none"><g clip-path="url(#clip0_24_21)"><path d="M37.5445 7.29305H36.4545V6.25761H36.714V7.0342H37.5445V7.29305Z" fill="#BBC6E1"></path><path d="M36.4545 4.34251H36.714V3.09997H36.4545V4.34251Z" fill="#BBC6E1"></path><path d="M39.4709 7.29405H40.8724V7.03519H39.4709V7.29405Z" fill="#BBC6E1"></path><path d="M36.5842 0.536732H43.2281V7.29304H41.8266V7.03418H42.9686V0.795597H36.714V2.14168H36.4545V0.536732H36.5842Z" fill="#BBC6E1"></path><path d="M37.5445 7.29083H36.4545V7.29528H37.5445V7.29083ZM36.4567 7.29305V6.25761H36.4522V7.29305H36.4567ZM36.4545 6.25983H36.714V6.25538H36.4545V6.25983ZM36.7117 6.25761V7.0342H36.7162V6.25761H36.7117ZM36.714 7.03642H37.5445V7.03197H36.714V7.03642ZM37.5423 7.0342V7.29305H37.5467V7.0342H37.5423ZM36.4545 4.34473H36.714V4.34028H36.4545V4.34473ZM36.7162 4.34251V3.09997H36.7117V4.34251H36.7162ZM36.714 3.09775H36.4545V3.10219H36.714V3.09775ZM36.4522 3.09997V4.34251H36.4567V3.09997H36.4522ZM39.4709 7.29628H40.8724V7.29183H39.4709V7.29628ZM40.8746 7.29405V7.03519H40.8701V7.29405H40.8746ZM40.8724 7.03297H39.4709V7.03741H40.8724V7.03297ZM39.4687 7.03519V7.29405H39.4732V7.03519H39.4687ZM43.2259 0.536732V7.29304H43.2303V0.536732H43.2259ZM43.2281 7.29082H41.8266V7.29526H43.2281V7.29082ZM41.8289 7.29304V7.03418H41.8245V7.29304H41.8289ZM41.8266 7.0364H42.9685V7.03195H41.8266V7.0364ZM42.9708 7.03418V0.795597H42.9664V7.03418H42.9708ZM42.9685 0.793367H36.714V0.797821H42.9685V0.793367ZM36.7117 0.795597V2.14168H36.7162V0.795597H36.7117ZM36.714 2.13945H36.4545V2.1439H36.714V2.13945ZM36.4567 2.14168V0.536732H36.4522V2.14168H36.4567ZM36.4545 0.538959H43.2281V0.534507H36.4545V0.538959Z" fill="#BBC6E1"></path><path d="M32.9609 15.5775H28.3673V11.1251H28.8085V15.1375H32.9609V15.5775Z" fill="#BBC6E1"></path><path d="M28.3673 8.48382H28.8085V6.25761H28.3673V8.48382Z" fill="#BBC6E1"></path><path d="M35.6053 15.5762H37.5517V15.1362H35.6053V15.5762Z" fill="#BBC6E1"></path><path d="M28.5749 2.40154H41.5772V15.5776H39.475V15.1375H41.136V2.84161H28.8085V4.34301H28.3673V2.40154H28.5749Z" fill="#BBC6E1"></path><path d="M32.9609 15.5753H28.3673V15.5798H32.9609V15.5753ZM28.3695 15.5775V11.1251H28.3651V15.5775H28.3695ZM28.3673 11.1274H28.8085V11.1229H28.3673V11.1274ZM28.8063 11.1251V15.1375H28.8107V11.1251H28.8063ZM28.8085 15.1397H32.9609V15.1353H28.8085V15.1397ZM32.9587 15.1375V15.5775H32.9631V15.1375H32.9587ZM28.3673 8.48606H28.8085V8.48158H28.3673V8.48606ZM28.8107 8.48382V6.25761H28.8063V8.48382H28.8107ZM28.8085 6.25538H28.3673V6.25983H28.8085V6.25538ZM28.3651 6.25761V8.48382H28.3695V6.25761H28.3651ZM35.6053 15.5784H37.5517V15.574H35.6053V15.5784ZM37.5539 15.5762V15.1362H37.5495V15.5762H37.5539ZM37.5517 15.1339H35.6053V15.1383H37.5517V15.1339ZM35.603 15.1362V15.5762H35.6075V15.1362H35.603ZM41.575 2.40154V15.5776H41.5795V2.40154H41.575ZM41.5772 15.5754H39.475V15.5799H41.5772V15.5754ZM39.4773 15.5776V15.1375H39.4728V15.5776H39.4773ZM39.475 15.1398H41.136V15.1353H39.475V15.1398ZM41.1382 15.1375V2.84161H41.1337V15.1375H41.1382ZM41.136 2.83938H28.8085V2.84383H41.136V2.83938ZM28.8063 2.84161V4.34301H28.8107V2.84161H28.8063ZM28.8085 4.34078H28.3673V4.34523H28.8085V4.34078ZM28.3695 4.34301V2.40154H28.3651V4.34301H28.3695ZM28.3673 2.40377H41.5772V2.39931H28.3673V2.40377Z" fill="#BBC6E1"></path><path d="M32.9532 28.1842H15.5909V11.1251H16.4733V27.2781H32.9532V28.1842Z" fill="#879CC7"></path><path d="M16.0321 4.86056H38.9483V28.1841H35.6004V27.2781H38.0659V5.74069H16.4733V8.48467H15.5909V4.86056H16.0321Z" fill="#879CC7"></path><path d="M32.9532 28.1819H15.5909V28.1864H32.9532V28.1819ZM15.5931 28.1842V11.1251H15.5887V28.1842H15.5931ZM15.5909 11.1274H16.4733V11.1229H15.5909V11.1274ZM16.4711 11.1251V27.2781H16.4755V11.1251H16.4711ZM16.4733 27.2804H32.9532V27.2759H16.4733V27.2804ZM32.951 27.2781V28.1842H32.9555V27.2781H32.951ZM38.9461 4.86056V28.1841H38.9505V4.86056H38.9461ZM38.9483 28.1818H35.6004V28.1862H38.9483V28.1818ZM35.6026 28.1841V27.2781H35.5982V28.1841H35.6026ZM35.6004 27.2802H38.0659V27.2758H35.6004V27.2802ZM38.0681 27.2781V5.74069H38.0637V27.2781H38.0681ZM38.0659 5.73846H16.4733V5.74291H38.0659V5.73846ZM16.4711 5.74069V8.48467H16.4755V5.74069H16.4711ZM16.4733 8.48243H15.5909V8.48683H16.4733V8.48243ZM15.5931 8.48467V4.86056H15.5887V8.48467H15.5931ZM15.5909 4.86278H38.9483V4.85833H15.5909V4.86278Z" fill="#879CC7"></path><path d="M0.622865 9.18288H34.9064V43.9998H0V9.18288H0.648817H0.622865ZM33.6347 10.4513H1.27169V42.7314H33.6347V10.4513Z" fill="#1E4594"></path><path d="M20.3665 20.3138V19.4077H17.2003V20.3138H18.2644V25.8275H19.2766V20.3138H20.3665ZM24.5709 25.8275L23.6106 22.98C24.2076 22.6694 24.3633 22.0999 24.3633 21.2975C24.3633 19.9772 23.8961 19.4077 22.7282 19.4077H21.0932V25.8275H22.1054V23.1872H22.6764L23.5068 25.8275H24.5709ZM23.3511 21.2975C23.3511 21.8411 23.2732 22.2811 22.7282 22.2811H22.1054V20.3138H22.7282C23.2732 20.3138 23.3511 20.7538 23.3511 21.2975ZM28.5416 24.2485V19.4077H27.5295V24.3003C27.5295 24.7662 27.244 24.9732 26.9066 24.9732C26.5692 24.9732 26.2837 24.7403 26.2837 24.3003V19.4077H25.2716V24.2485C25.2716 24.7403 25.4273 25.1286 25.7128 25.4393C26.0242 25.7499 26.4394 25.9052 26.9066 25.9052C27.3738 25.9052 27.789 25.7499 28.1004 25.4393C28.3859 25.1545 28.5416 24.7403 28.5416 24.2485ZM32.2789 24.9215H30.5919V23.0577H32.0453V22.1517H30.5919V20.3397H32.2789V19.4336H29.5797V25.8534H32.2789V24.9215Z" fill="#1E4594"></path><path d="M8.72049 38.1759C8.72049 37.0887 8.59073 36.3639 8.04575 35.7944C7.89005 35.6391 7.65646 35.4838 7.39693 35.3543C7.65646 35.2508 7.8381 35.0955 8.01981 34.9402C8.56479 34.3706 8.69456 33.7235 8.69456 32.8952C8.69456 31.6267 8.48691 31.0313 7.94192 30.4618C7.44884 29.97 6.74811 29.737 5.6581 29.737H2.69949V41.5412H5.63215C6.74811 41.5412 7.44884 41.2823 7.96786 40.7905C8.53886 40.2209 8.72049 39.5479 8.72049 38.15V38.1759ZM6.85193 38.0465C6.85193 39.4184 6.43668 39.8844 5.45048 39.8844H4.54214V36.2086H5.45048C6.43668 36.2086 6.85193 36.7522 6.85193 38.0465ZM6.82597 33.0245C6.82597 34.1635 6.43668 34.6295 5.47643 34.6295H4.54214V31.4196H5.47643C6.43668 31.4196 6.82597 31.8597 6.82597 33.0245ZM12.4058 41.567V29.7629H10.5372V41.567H12.4058ZM22.3457 41.567V29.7629H20.6588L18.3749 35.9756L16.0911 29.7629H14.4041V41.567H16.2727V34.293L17.8559 39.056H18.894L20.5031 34.2153V41.5929H22.3716L22.3457 41.567Z" fill="#1E4594"></path></g><defs><clipPath id="clip0_24_21"><rect width="44" height="44" fill="white"></rect></clipPath></defs></svg> 